<svg id="_x31__px" height="512" viewBox="0 0 24 24" width="512" xmlns="http://www.w3.org/2000/svg"><path d="m20.5 21h-8c-.238 0-.443-.168-.49-.402l-1-5c-.029-.146.009-.299.104-.415.094-.116.236-.183.386-.183h9.859l.656-2.621c.066-.269.336-.434.606-.364.268.067.431.338.364.606l-2 8c-.056.223-.256.379-.485.379zm-7.59-1h7.2l1-4h-9z"/><path d="m15 24c-.551 0-1-.449-1-1s.449-1 1-1 1 .449 1 1-.449 1-1 1z"/><path d="m19 24c-.551 0-1-.449-1-1s.449-1 1-1 1 .449 1 1-.449 1-1 1z"/><path d="m23.5 9h-23c-.276 0-.5-.224-.5-.5s.224-.5.5-.5h23c.276 0 .5.224.5.5s-.224.5-.5.5z"/><path d="m22.5 9h-21c-.144 0-.28-.062-.375-.169-.095-.108-.139-.251-.121-.393l.891-7.124c.093-.749.733-1.314 1.488-1.314h17.234c.755 0 1.395.565 1.488 1.314l.891 7.124c.018.142-.026.285-.121.393-.095.107-.231.169-.375.169zm-20.434-1h19.867l-.82-6.562c-.031-.25-.244-.438-.496-.438h-17.234c-.252 0-.465.188-.496.438z"/><path d="m6.5 9c-.02 0-.041-.001-.062-.004-.274-.034-.468-.284-.434-.558l1-8c.034-.274.282-.467.558-.434.274.034.468.284.434.558l-1 8c-.032.253-.247.438-.496.438z"/><path d="m12 9c-.276 0-.5-.224-.5-.5v-8c0-.276.224-.5.5-.5s.5.224.5.5v8c0 .276-.224.5-.5.5z"/><path d="m17.5 9c-.249 0-.464-.185-.496-.438l-1-8c-.034-.274.16-.524.434-.558.277-.033.523.16.558.434l1 8c.034.274-.16.524-.434.558-.021.003-.042.004-.062.004z"/><path d="m9.5 22h-5c-1.378 0-2.5-1.121-2.5-2.5v-11c0-.276.224-.5.5-.5h19c.276 0 .5.224.5.5s-.224.5-.5.5h-18.5v10.5c0 .827.673 1.5 1.5 1.5h5c.276 0 .5.224.5.5s-.224.5-.5.5z"/><path d="m8.5 18h-2c-.827 0-1.5-.673-1.5-1.5v-3c0-.827.673-1.5 1.5-1.5h3c.276 0 .5.224.5.5s-.224.5-.5.5h-3c-.276 0-.5.225-.5.5v3c0 .275.224.5.5.5h2c.276 0 .5.224.5.5s-.224.5-.5.5z"/></svg>